<svg width="180" height="28" viewBox="0 0 180 28" fill="none" xmlns="http://www.w3.org/2000/svg">
<g clip-path="url(#clip0_115_1147)">
<path d="M152 14C152 21.732 158.268 28 166 28C173.732 28 180 21.732 180 14C180 6.26801 173.732 0 166 0C158.268 0 152 6.26801 152 14Z" fill="#7D3DAF"/>
<path d="M170.089 21.4498C169.812 21.3656 169.547 21.309 169.301 21.207C166.756 20.1511 164.414 18.7887 162.558 16.7004C161.503 15.5128 160.677 14.1721 159.979 12.7533C159.648 12.0804 159.369 11.3812 159.085 10.6865C158.825 10.0531 159.207 9.39861 159.61 8.92131C159.987 8.47337 160.472 8.13056 160.998 7.87792C161.409 7.68071 161.814 7.7944 162.114 8.14232C162.762 8.89451 163.357 9.68517 163.839 10.5571C164.135 11.0934 164.054 11.7489 163.517 12.1139C163.386 12.2026 163.267 12.3067 163.146 12.4069C163.039 12.4947 162.939 12.5834 162.865 12.7023C162.732 12.9198 162.725 13.1764 162.811 13.4129C163.474 15.2335 164.591 16.6491 166.423 17.4116C166.716 17.5336 167.011 17.6757 167.349 17.6363C167.914 17.5702 168.097 16.9497 168.494 16.6254C168.881 16.3086 169.377 16.3044 169.794 16.5685C170.211 16.8328 170.616 17.1164 171.018 17.4031C171.413 17.6844 171.806 17.9597 172.171 18.2804C172.521 18.5889 172.641 18.9935 172.444 19.4121C172.083 20.1787 171.558 20.8164 170.8 21.2235C170.586 21.3383 170.33 21.3755 170.089 21.4498C170.33 21.3755 169.812 21.3655 170.089 21.4498Z" fill="white"/>
<path d="M166.169 7.00138C169.498 7.09466 172.233 9.30409 172.819 12.5955C172.918 13.1563 172.954 13.7297 172.998 14.2989C173.017 14.5383 172.881 14.7658 172.623 14.7689C172.356 14.7721 172.236 14.5488 172.219 14.3095C172.185 13.8357 172.161 13.3599 172.095 12.8901C171.751 10.41 169.773 8.35824 167.305 7.91796C166.933 7.85168 166.553 7.83426 166.177 7.79479C165.939 7.7698 165.627 7.7554 165.575 7.45972C165.53 7.21182 165.74 7.01442 165.976 7.00175C166.04 6.99819 166.104 7.00111 166.169 7.00138C169.498 7.09466 166.104 7.00111 166.169 7.00138Z" fill="white"/>
<path d="M171.228 13.5601C171.223 13.6017 171.22 13.6994 171.196 13.7915C171.107 14.1257 170.601 14.1676 170.484 13.8302C170.449 13.7301 170.444 13.6163 170.444 13.5085C170.443 12.8033 170.29 12.0989 169.934 11.4854C169.568 10.8548 169.01 10.3248 168.355 10.004C167.959 9.81008 167.531 9.68955 167.097 9.6177C166.907 9.58634 166.715 9.56728 166.524 9.54075C166.293 9.50866 166.17 9.36141 166.181 9.13375C166.191 8.9204 166.347 8.76695 166.58 8.78008C167.344 8.82348 168.082 8.9886 168.761 9.34828C170.142 10.0798 170.931 11.2344 171.161 12.7762C171.172 12.846 171.189 12.9152 171.194 12.9853C171.207 13.1585 171.215 13.3318 171.228 13.5601C171.223 13.6017 171.215 13.3318 171.228 13.5601Z" fill="white"/>
<path d="M169.157 13.4795C168.879 13.4845 168.73 13.3303 168.701 13.0749C168.681 12.8969 168.665 12.7164 168.623 12.5432C168.539 12.202 168.358 11.8858 168.071 11.6768C167.935 11.578 167.782 11.5061 167.621 11.4597C167.417 11.4007 167.205 11.4169 167.001 11.367C166.779 11.3127 166.657 11.1335 166.692 10.9258C166.723 10.7368 166.907 10.5892 167.114 10.6042C168.404 10.6974 169.327 11.3647 169.459 12.8842C169.468 12.9914 169.479 13.1047 169.455 13.2073C169.414 13.3829 169.284 13.4709 169.157 13.4795C169.284 13.4709 168.879 13.4845 169.157 13.4795Z" fill="white"/>
</g>
<g clip-path="url(#clip1_115_1147)">
<circle cx="128" cy="14" r="14" fill="#4CAF50"/>
<path d="M134.675 16.4002C134.675 16.4002 133.246 15.7002 132.351 15.2335C131.339 14.712 130.149 15.6885 129.589 16.2439C128.717 15.9091 127.921 15.4038 127.247 14.7575C126.601 14.0837 126.096 13.2877 125.761 12.416C126.316 11.8549 127.29 10.666 126.771 9.65339C126.31 8.75739 125.605 7.32939 125.605 7.32824C125.506 7.13169 125.304 7.0076 125.084 7.00739H123.918C122.219 7.30084 120.983 8.78331 121.001 10.5074C121.001 12.339 123.193 15.8577 124.671 17.337C126.149 18.8163 129.668 21.0074 131.501 21.0074C133.225 21.0251 134.707 19.7897 135.001 18.0907V16.9241C135.001 16.7016 134.875 16.4985 134.675 16.4002Z" fill="#FAFAFA"/>
</g>
<g clip-path="url(#clip2_115_1147)">
<path d="M90.0009 27.9998C97.7328 27.9998 104.001 21.7318 104.001 13.9999C104.001 6.26796 97.7328 0 90.0009 0C82.2689 0 76.001 6.26796 76.001 13.9999C76.001 21.7318 82.2689 27.9998 90.0009 27.9998Z" fill="#55ACEE"/>
<path d="M98.5755 10.0613C97.9755 10.3273 97.3301 10.5073 96.6533 10.5876C97.3444 10.1736 97.8747 9.51851 98.125 8.73664C97.4784 9.12021 96.7619 9.39847 96 9.54846C95.3896 8.89835 94.5198 8.49207 93.5568 8.49207C91.709 8.49207 90.2104 9.99068 90.2104 11.8384C90.2104 12.1007 90.2401 12.356 90.2975 12.6011C87.5164 12.4616 85.0505 11.1294 83.3999 9.10424C83.1119 9.59837 82.9467 10.1736 82.9467 10.7868C82.9467 11.9475 83.5379 12.9722 84.4353 13.5721C83.887 13.5549 83.3707 13.4044 82.9197 13.1531C82.9195 13.1673 82.9195 13.1816 82.9195 13.1955C82.9195 14.8169 84.0735 16.1693 85.604 16.4765C85.3235 16.5534 85.0273 16.5941 84.7226 16.5941C84.5065 16.5941 84.2971 16.5734 84.0929 16.5344C84.5187 17.8636 85.7543 18.8311 87.2189 18.8583C86.0734 19.756 84.6307 20.2908 83.0625 20.2908C82.793 20.2908 82.5259 20.2751 82.2646 20.2439C83.7448 21.1937 85.5042 21.7475 87.3939 21.7475C93.549 21.7475 96.9151 16.6485 96.9151 12.226C96.9151 12.081 96.9119 11.9365 96.9054 11.7933C97.5597 11.3216 98.127 10.7324 98.5755 10.0613Z" fill="#F1F2F2"/>
</g>
<g clip-path="url(#clip3_115_1147)">
<path d="M52 28C59.732 28 66 21.732 66 14C66 6.26801 59.732 0 52 0C44.268 0 38 6.26801 38 14C38 21.732 44.268 28 52 28Z" fill="#3B5998"/>
<path d="M55.5196 14.5481H53.0215V23.7001H49.2366V14.5481H47.4365V11.3317H49.2366V9.25034C49.2366 7.76195 49.9436 5.43127 53.0552 5.43127L55.8588 5.443V8.56504H53.8246C53.4909 8.56504 53.0217 8.73175 53.0217 9.44176V11.3347H55.8503L55.5196 14.5481Z" fill="white"/>
</g>
<g clip-path="url(#clip4_115_1147)">
<path d="M14 28C21.732 28 28 21.732 28 14C28 6.26801 21.732 0 14 0C6.26801 0 0 6.26801 0 14C0 21.732 6.26801 28 14 28Z" fill="#4D76A1"/>
<path fill-rule="evenodd" clip-rule="evenodd" d="M13.4712 20.1403H14.57C14.57 20.1403 14.9019 20.1038 15.0714 19.9211C15.2274 19.7534 15.2224 19.4385 15.2224 19.4385C15.2224 19.4385 15.2009 17.9641 15.8852 17.7469C16.5598 17.5331 17.426 19.172 18.3441 19.8021C19.0384 20.279 19.566 20.1744 19.566 20.1744L22.021 20.1403C22.021 20.1403 23.3052 20.0611 22.6963 19.0514C22.6464 18.9688 22.3417 18.3045 20.871 16.9394C19.3317 15.5106 19.5378 15.7417 21.3921 13.2703C22.5213 11.7652 22.9728 10.8463 22.8318 10.4527C22.6973 10.0779 21.8667 10.1769 21.8667 10.1769L19.1026 10.1942C19.1026 10.1942 18.8977 10.1662 18.7457 10.2571C18.5972 10.3461 18.5016 10.5538 18.5016 10.5538C18.5016 10.5538 18.0641 11.7185 17.4807 12.709C16.2498 14.7991 15.7577 14.9094 15.5565 14.7796C15.0886 14.4772 15.2054 13.5645 15.2054 12.9162C15.2054 10.8907 15.5126 10.0462 14.6072 9.82756C14.3067 9.75494 14.0856 9.70702 13.3172 9.69928C12.3309 9.68905 11.4961 9.70228 11.0235 9.93387C10.709 10.0879 10.4664 10.431 10.6142 10.4507C10.7969 10.4752 11.2106 10.5623 11.43 10.861C11.7133 11.2463 11.7033 12.1118 11.7033 12.1118C11.7033 12.1118 11.866 14.4961 11.3232 14.7924C10.9506 14.9955 10.4395 14.5807 9.34215 12.6846C8.77989 11.7133 8.35538 10.6396 8.35538 10.6396C8.35538 10.6396 8.27352 10.439 8.12753 10.3317C7.95034 10.2017 7.70277 10.1602 7.70277 10.1602L5.07612 10.1774C5.07612 10.1774 4.68181 10.1884 4.53706 10.3599C4.40829 10.5124 4.52683 10.8278 4.52683 10.8278C4.52683 10.8278 6.58323 15.6389 8.91166 18.0634C11.0467 20.2863 13.4712 20.1403 13.4712 20.1403Z" fill="white"/>
</g>
<defs>
<clipPath id="clip0_115_1147">
<rect width="28" height="28" fill="white" transform="translate(152)"/>
</clipPath>
<clipPath id="clip1_115_1147">
<rect width="28" height="28" fill="white" transform="translate(114)"/>
</clipPath>
<clipPath id="clip2_115_1147">
<rect width="28" height="28" fill="white" transform="translate(76)"/>
</clipPath>
<clipPath id="clip3_115_1147">
<rect width="28" height="28" fill="white" transform="translate(38)"/>
</clipPath>
<clipPath id="clip4_115_1147">
<rect width="28" height="28" fill="white"/>
</clipPath>
</defs>
</svg>
