<svg width="20" height="20" viewBox="0 0 20 20" fill="none" xmlns="http://www.w3.org/2000/svg">
<g clip-path="url(#clip0_379_366)">
<path d="M4.04053 19.5278C3.96642 19.5278 3.89232 19.5049 3.83003 19.4594C3.71977 19.3793 3.66464 19.2436 3.68791 19.1093L4.79446 12.659L0.107975 8.09137C0.0106009 7.99615 -0.0244824 7.85402 0.0174028 7.72479C0.059646 7.59519 0.171698 7.50068 0.306661 7.48099L6.78276 6.53983L9.67928 0.671249C9.73942 0.548815 9.864 0.471489 10 0.471489C10.1364 0.471489 10.261 0.548815 10.3208 0.671249L13.217 6.53983L19.6934 7.48099C19.8284 7.50068 19.9401 7.59484 19.9827 7.72479C20.0246 7.85402 19.9898 7.99651 19.8921 8.09137L15.2056 12.6597L16.3118 19.1097C16.3347 19.2439 16.2796 19.3796 16.1697 19.4598C16.0594 19.5407 15.913 19.5511 15.7924 19.487L10 16.4419L4.207 19.487C4.15473 19.5142 4.09745 19.5278 4.04053 19.5278ZM1.12718 8.08493L5.42883 12.2781C5.51296 12.3601 5.55162 12.4789 5.53157 12.5949L4.51594 18.5154L9.83357 15.7202C9.93775 15.6651 10.062 15.6651 10.1669 15.7202L15.4838 18.5154L14.4685 12.5949C14.4485 12.4789 14.4871 12.3604 14.5713 12.2781L18.8729 8.08493L12.9284 7.22109C12.8117 7.20427 12.7111 7.13088 12.6589 7.02527L10 1.6389L7.34123 7.02563C7.28896 7.13124 7.18836 7.20462 7.07166 7.22145L1.12718 8.08493Z" fill="black"/>
</g>
<defs>
<clipPath id="clip0_379_366">
<rect width="20" height="20" fill="white"/>
</clipPath>
</defs>
</svg>
