<svg width="40" height="40" viewBox="0 0 40 40" fill="none" xmlns="http://www.w3.org/2000/svg">
<circle cx="20" cy="20" r="19.5" stroke="white"/>
<g clip-path="url(#clip0_388_933)">
<path d="M27.5585 12.3898H12.4457C11.0966 12.3898 10 13.4864 10 14.8355V25.1645C10 26.5136 11.0966 27.6102 12.4457 27.6102H27.5543C28.9034 27.6102 30 26.5136 30 25.1645V14.8396C30.0041 13.4906 28.9075 12.3898 27.5585 12.3898ZM28.8868 25.1645C28.8868 25.897 28.2909 26.4929 27.5585 26.4929H12.4457C11.7132 26.4929 11.1173 25.897 11.1173 25.1645V14.8396C11.1173 14.1072 11.7132 13.5113 12.4457 13.5113H27.5543C28.2868 13.5113 28.8827 14.1072 28.8827 14.8396V25.1645H28.8868Z" fill="white"/>
<path d="M22.6108 19.8717L27.5022 15.4852C27.7298 15.2783 27.7505 14.9265 27.5436 14.6948C27.3367 14.4672 26.9849 14.4465 26.7532 14.6534L20.0079 20.7076L18.6919 19.5324C18.6878 19.5282 18.6836 19.5241 18.6836 19.52C18.6547 19.491 18.6257 19.4662 18.5926 19.4413L13.2378 14.6493C13.006 14.4424 12.6543 14.4631 12.4474 14.6948C12.2404 14.9265 12.2611 15.2783 12.4929 15.4852L17.4422 19.909L12.5136 24.5231C12.2901 24.7341 12.2777 25.0859 12.4887 25.3135C12.6005 25.4293 12.7494 25.4914 12.8984 25.4914C13.035 25.4914 13.1715 25.4418 13.2791 25.3424L18.2822 20.6621L19.6396 21.8746C19.7472 21.9698 19.8796 22.0153 20.012 22.0153C20.1444 22.0153 20.281 21.9657 20.3845 21.8705L21.779 20.6207L26.7532 25.3466C26.8608 25.45 27.0015 25.4997 27.138 25.4997C27.287 25.4997 27.4318 25.4418 27.5436 25.3259C27.7546 25.1024 27.7463 24.7465 27.5229 24.5355L22.6108 19.8717Z" fill="white"/>
</g>
<defs>
<clipPath id="clip0_388_933">
<rect width="20" height="20" fill="white" transform="translate(10 10)"/>
</clipPath>
</defs>
</svg>
