<svg width="16" height="16" viewBox="0 0 16 16" fill="none" xmlns="http://www.w3.org/2000/svg">
<g clip-path="url(#clip0_73_297)">
<path d="M10.2068 5.79684C9.9998 5.79684 9.83206 5.96458 9.83206 6.17155V13.2535C9.83206 13.4603 9.9998 13.6282 10.2068 13.6282C10.4137 13.6282 10.5815 13.4603 10.5815 13.2535V6.17155C10.5815 5.96458 10.4137 5.79684 10.2068 5.79684Z" fill="black"/>
<path d="M5.78509 5.79684C5.57813 5.79684 5.41039 5.96458 5.41039 6.17155V13.2535C5.41039 13.4603 5.57813 13.6282 5.78509 13.6282C5.99206 13.6282 6.1598 13.4603 6.1598 13.2535V6.17155C6.1598 5.96458 5.99206 5.79684 5.78509 5.79684Z" fill="black"/>
<path d="M2.56224 4.76329V13.9953C2.56224 14.5409 2.76233 15.0534 3.11186 15.421C3.45978 15.7897 3.94397 15.9991 4.4507 15.9999H11.5403C12.0471 15.9991 12.5313 15.7897 12.8791 15.421C13.2286 15.0534 13.4287 14.5409 13.4287 13.9953V4.76329C14.1235 4.57887 14.5738 3.90761 14.4808 3.19465C14.3877 2.48183 13.7804 1.94861 13.0615 1.94846H11.143V1.48008C11.1452 1.0862 10.9895 0.707977 10.7106 0.429729C10.4318 0.151627 10.053 -0.00323193 9.65912 -1.18019e-05H6.33184C5.93796 -0.00323193 5.55916 0.151627 5.28033 0.429729C5.00149 0.707977 4.84575 1.0862 4.84795 1.48008V1.94846H2.92948C2.21052 1.94861 1.60323 2.48183 1.51014 3.19465C1.41719 3.90761 1.86743 4.57887 2.56224 4.76329ZM11.5403 15.2505H4.4507C3.81004 15.2505 3.31165 14.7002 3.31165 13.9953V4.79622H12.6793V13.9953C12.6793 14.7002 12.1809 15.2505 11.5403 15.2505ZM5.59736 1.48008C5.59487 1.28497 5.67157 1.09717 5.81004 0.95944C5.94836 0.821707 6.13659 0.746034 6.33184 0.7494H9.65912C9.85437 0.746034 10.0426 0.821707 10.1809 0.95944C10.3194 1.09703 10.3961 1.28497 10.3936 1.48008V1.94846H5.59736V1.48008ZM2.92948 2.69787H13.0615C13.434 2.69787 13.7359 2.99983 13.7359 3.37234C13.7359 3.74485 13.434 4.04681 13.0615 4.04681H2.92948C2.55697 4.04681 2.25501 3.74485 2.25501 3.37234C2.25501 2.99983 2.55697 2.69787 2.92948 2.69787Z" fill="black"/>
<path d="M7.9963 5.79684C7.78934 5.79684 7.6216 5.96458 7.6216 6.17155V13.2535C7.6216 13.4603 7.78934 13.6282 7.9963 13.6282C8.20327 13.6282 8.371 13.4603 8.371 13.2535V6.17155C8.371 5.96458 8.20327 5.79684 7.9963 5.79684Z" fill="black"/>
</g>
<defs>
<clipPath id="clip0_73_297">
<rect width="16" height="16" fill="white"/>
</clipPath>
</defs>
</svg>
