<svg width="32" height="29" viewBox="0 0 32 29" fill="none" xmlns="http://www.w3.org/2000/svg">
<path d="M31.9286 20.2366C31.7066 19.4277 31.0283 18.8257 30.1987 18.7013V6.54146H31.2583C31.5509 6.54146 31.7881 6.30424 31.7881 6.01166V0.71364C31.7881 0.4208 31.5509 0.183838 31.2583 0.183838H7.94703C7.65445 0.183838 7.41723 0.4208 7.41723 0.71364V6.01166C7.41723 6.30424 7.65445 6.54146 7.94703 6.54146H9.00663V17.1375H8.47683C7.1619 17.1344 5.87387 17.5113 4.76822 18.223V15.5481C4.76822 15.2553 4.531 15.0183 4.23842 15.0183H0.529802C0.237221 15.0183 0 15.2553 0 15.5481V27.7335C0 28.0261 0.237221 28.2633 0.529802 28.2633H4.23842C4.531 28.2633 4.76822 28.0261 4.76822 27.7335V25.0589C5.87413 25.7701 7.1619 26.147 8.47683 26.1441H17.1761C17.7789 26.1431 18.3788 26.0639 18.9611 25.9087L30.4318 22.836C31.5605 22.5284 32.2292 21.3674 31.9286 20.2366ZM8.47683 1.24344H30.7285V5.48186H8.47683V1.24344ZM10.0662 6.54146H29.1391V18.7924L22.9902 20.4413C22.737 19.8375 22.2204 19.384 21.5889 19.2109L14.4503 17.2963C14.0483 17.1905 13.6344 17.137 13.2187 17.1375H10.0662V6.54146ZM3.70861 27.2037H1.0596V16.0779H3.70861V27.2037ZM30.1568 21.8123L18.6882 24.8851C18.1949 25.0168 17.6868 25.0838 17.1761 25.0845H8.47683C7.21545 25.0874 5.98743 24.6781 4.98009 23.9189L4.76822 23.76V19.5216L4.98009 19.3625C5.98743 18.6033 7.21545 18.1937 8.47683 18.1971H13.2187C13.5423 18.1968 13.8649 18.2388 14.1782 18.3215L21.3144 20.2346C21.7361 20.3507 22.0447 20.7121 22.0928 21.147C22.0985 21.1687 22.1055 21.1902 22.1141 21.2111C22.1078 21.2339 22.1032 21.2569 22.1001 21.2805C22.1006 21.3666 22.089 21.4525 22.0652 21.5353C21.9405 21.997 21.5222 22.3181 21.0438 22.3189C20.9505 22.3196 20.8578 22.3077 20.7678 22.2839L16.2645 21.0764C16.0798 21.0215 15.8798 21.0712 15.7422 21.2062C15.6048 21.3413 15.5513 21.5402 15.6028 21.7259C15.6543 21.9114 15.8025 22.0547 15.99 22.0995L20.4934 23.3076C20.6731 23.3549 20.8586 23.3787 21.0449 23.3785C21.9974 23.3779 22.8322 22.7408 23.0839 21.8219C23.1134 21.7156 23.1333 21.6069 23.1439 21.4972L29.6027 19.7653C29.6487 19.7537 29.6987 19.7418 29.7457 19.734C30.2732 19.666 30.7691 19.9994 30.9055 20.5132C30.9293 20.6027 30.9412 20.695 30.9404 20.7877C30.9412 21.2673 30.6199 21.6874 30.1568 21.8123Z" fill="black"/>
</svg>
